HIERARCHY
ROOT hip
{
  OFFSET 0 0 0
  CHANNELS 6 Xposition Yposition Zposition Zrotation Yrotation Xrotation
  JOINT abdomen
  {
    OFFSET 0 20.6881 -0.73152
    CHANNELS 3 Zrotation Xrotation Yrotation
    JOINT chest
    {
      OFFSET 0 11.7043 -0.48768
      CHANNELS 3 Zrotation Xrotation Yrotation
      JOINT neck
      {
        OFFSET 0 22.1894 -2.19456
        CHANNELS 3 Zrotation Xrotation Yrotation
        JOINT head
        {
          OFFSET -0.24384 7.07133 1.2192
          CHANNELS 3 Zrotation Xrotation Yrotation
          JOINT leftEye
          {
            OFFSET 4.14528 8.04674 8.04672
            CHANNELS 3 Zrotation Xrotation Yrotation
            End Site
            {
              OFFSET 1 0 0
            }
          }
          JOINT rightEye
          {
            OFFSET -3.6576 8.04674 8.04672
            CHANNELS 3 Zrotation Xrotation Yrotation
            End Site
            {
              OFFSET 1 0 0
            }
          }
        }
      }
      JOINT rCollar
      {
        OFFSET -2.68224 19.2634 -4.8768
        CHANNELS 3 Zrotation Xrotation Yrotation
        JOINT rShldr
        {
          OFFSET -8.77824 -1.95073 1.46304
          CHANNELS 3 Zrotation Xrotation Yrotation
          JOINT rForeArm
          {
            OFFSET -28.1742 -1.7115 0.48768
            CHANNELS 3 Zrotation Xrotation Yrotation
            JOINT rHand
            {
              OFFSET -22.5879 0.773209 7.07136
              CHANNELS 3 Zrotation Xrotation Yrotation
              JOINT rThumb1
              {
                OFFSET -1.2192 -0.487915 3.41376
                CHANNELS 3 Zrotation Xrotation Yrotation
                JOINT rThumb2
                {
                  OFFSET -3.37035 -0.52449 3.41376
                  CHANNELS 3 Zrotation Xrotation Yrotation
                  End Site
                  {
                    OFFSET -1.78271 -1.18214 1.43049
                  }
                }
              }
              JOINT rIndex1
              {
                OFFSET -7.75947 0.938293 5.60832
                CHANNELS 3 Zrotation Xrotation Yrotation
                JOINT rIndex2
                {
                  OFFSET -2.54057 -0.884171 1.56538
                  CHANNELS 3 Zrotation Xrotation Yrotation
                  End Site
                  {
                    OFFSET -1.62519 -0.234802 1.16502
                  }
                }
              }
              JOINT rMid1
              {
                OFFSET -8.24714 1.18213 3.41376
                CHANNELS 3 Zrotation Xrotation Yrotation
                JOINT rMid2
                {
                  OFFSET -3.10165 -0.590103 1.0647
                  CHANNELS 3 Zrotation Xrotation Yrotation
                  End Site
                  {
                    OFFSET -2.48547 -0.328903 0.83742
                  }
                }
              }
              JOINT rRing1
              {
                OFFSET -8.82822 0.546677 1.51678
                CHANNELS 3 Zrotation Xrotation Yrotation
                JOINT rRing2
                {
                  OFFSET -2.60934 -0.819778 -0.0198488
                  CHANNELS 3 Zrotation Xrotation Yrotation
                  End Site
                  {
                    OFFSET -2.33842 -0.294052 0.168128
                  }
                }
              }
              JOINT rPinky1
              {
                OFFSET -8.27202 -0.0477905 -0.4584
                CHANNELS 3 Zrotation Xrotation Yrotation
                JOINT rPinky2
                {
                  OFFSET -1.82734 -0.647385 -0.700984
                  CHANNELS 3 Zrotation Xrotation Yrotation
                  End Site
                  {
                    OFFSET -1.69225 -0.51767 -0.607171
                  }
                }
              }
            }
          }
        }
      }
      JOINT lCollar
      {
        OFFSET 2.68224 19.2634 -4.8768
        CHANNELS 3 Zrotation Xrotation Yrotation
        JOINT lShldr
        {
          OFFSET 8.77824 -1.95073 1.46304
          CHANNELS 3 Zrotation Xrotation Yrotation
          JOINT lForeArm
          {
            OFFSET 28.1742 -1.7115 0.48768
            CHANNELS 3 Zrotation Xrotation Yrotation
            JOINT lHand
            {
              OFFSET 22.5879 0.773209 7.07136
              CHANNELS 3 Zrotation Xrotation Yrotation
              JOINT lThumb1
              {
                OFFSET 1.2192 -0.487915 3.41376
                CHANNELS 3 Zrotation Xrotation Yrotation
                JOINT lThumb2
                {
                  OFFSET 3.37035 -0.52449 3.41376
                  CHANNELS 3 Zrotation Xrotation Yrotation
                  End Site
                  {
                    OFFSET 1.78271 -1.18214 1.43049
                  }
                }
              }
              JOINT lIndex1
              {
                OFFSET 7.75947 0.938293 5.60832
                CHANNELS 3 Zrotation Xrotation Yrotation
                JOINT lIndex2
                {
                  OFFSET 2.54057 -0.884171 1.56538
                  CHANNELS 3 Zrotation Xrotation Yrotation
                  End Site
                  {
                    OFFSET 1.62519 -0.234802 1.16502
                  }
                }
              }
              JOINT lMid1
              {
                OFFSET 8.24714 1.18213 3.41376
                CHANNELS 3 Zrotation Xrotation Yrotation
                JOINT lMid2
                {
                  OFFSET 3.10165 -0.590103 1.0647
                  CHANNELS 3 Zrotation Xrotation Yrotation
                  End Site
                  {
                    OFFSET 2.48547 -0.328903 0.83742
                  }
                }
              }
              JOINT lRing1
              {
                OFFSET 8.82822 0.546677 1.51678
                CHANNELS 3 Zrotation Xrotation Yrotation
                JOINT lRing2
                {
                  OFFSET 2.60934 -0.819778 -0.0198488
                  CHANNELS 3 Zrotation Xrotation Yrotation
                  End Site
                  {
                    OFFSET 2.33842 -0.294052 0.168128
                  }
                }
              }
              JOINT lPinky1
              {
                OFFSET 8.27202 -0.0477905 -0.4584
                CHANNELS 3 Zrotation Xrotation Yrotation
                JOINT lPinky2
                {
                  OFFSET 1.82734 -0.647385 -0.700984
                  CHANNELS 3 Zrotation Xrotation Yrotation
                  End Site
                  {
                    OFFSET 1.69225 -0.51767 -0.607171
                  }
                }
              }
            }
          }
        }
      }
    }
  }
  JOINT rButtock
  {
    OFFSET -8.77824 4.35084 1.2192
    CHANNELS 3 Zrotation Xrotation Yrotation
    JOINT rThigh
    {
      OFFSET 0 -1.70687 -2.19456
      CHANNELS 3 Zrotation Xrotation Yrotation
      JOINT rShin
      {
        OFFSET 0 -36.8199 0.73152
        CHANNELS 3 Zrotation Xrotation Yrotation
        JOINT rFoot
        {
          OFFSET 0.73152 -45.1104 -5.12064
          CHANNELS 3 Zrotation Xrotation Yrotation
          End Site
          {
            OFFSET -1.1221 -3.69964 12.103
          }
        }
      }
    }
  }
  JOINT lButtock
  {
    OFFSET 8.77824 4.35084 1.2192
    CHANNELS 3 Zrotation Xrotation Yrotation
    JOINT lThigh
    {
      OFFSET 0 -1.70687 -2.19456
      CHANNELS 3 Zrotation Xrotation Yrotation
      JOINT lShin
      {
        OFFSET 0 -36.8199 0.73152
        CHANNELS 3 Zrotation Xrotation Yrotation
        JOINT lFoot
        {
          OFFSET -0.73152 -45.1104 -5.12064
          CHANNELS 3 Zrotation Xrotation Yrotation
          End Site
          {
            OFFSET 1.1221 -3.69964 12.103
          }
        }
      }
    }
  }
}
MOTION
Frames:	6
Frame Time:	0.00833333
75.7758 71.5462 0.371 0.0 0.0 0.0 -2.02391 -0.00361452 -0.0553164 -0.559249 0.00174147 -0.0968421 1.32926e-14 7.95139e-16 9.93923e-17 3.97352e-14 9.54166e-15 1.45982e-16 -0.0 0.0 0.0 -0.0 0.0 0.0 6.65884e-15 1.15893e-16 9.93923e-17 1.4031e-13 2.62768e-15 1.98785e-15 2.40028e-12 -6.32135e-13 9.54166e-15 2.73986e-11 1.15064e-12 9.54166e-14 6.46439e-11 1.12134e-12 2.22639e-13 1.11639e-10 1.93696e-12 3.7292e-13 6.46507e-11 1.12313e-12 2.16278e-13 7.73091 5.47488 0.417314 6.46447e-11 1.12144e-12 2.19458e-13 2.90554 0.965183 0.102902 6.46536e-11 1.12194e-12 2.13892e-13 10.2786 0.731801 0.0259123 6.46398e-11 1.12313e-12 2.13097e-13 2.22167 -0.733487 -0.20892 6.56079e-15 1.12205e-16 -9.93923e-17 1.3608e-13 2.43511e-15 -1.98785e-16 2.3884e-12 8.00705e-13 -4.77083e-14 2.74147e-11 -2.86026e-13 1.55847e-13 6.46557e-11 1.1154e-12 2.09917e-13 1.11659e-10 1.92424e-12 3.59403e-13 6.46488e-11 1.11637e-12 2.13097e-13 -7.73091 5.47488 -0.417314 6.46544e-11 1.11538e-12 2.06736e-13 -2.90554 0.965183 -0.102902 6.46456e-11 1.11578e-12 2.11507e-13 -10.2786 0.731801 -0.0259123 6.46567e-11 1.11637e-12 2.09917e-13 -2.22167 -0.733487 0.20892 -2.03217e-16 0.0 -3.88251e-19 -1.11557 -1.92526 0.00146412 -0.00851749 -2.07866 -0.0699102 -0.419321 3.99848 0.126609 2.03217e-16 0.0 3.88251e-19 -1.97276 -7.47861 0.198874 -0.00485536 7.98043 -0.120953 0.466976 -0.507194 -0.0427409
72.5321 68.2927 -2.67822 10.1436 -78.8661 8.9064 -1.55496 0.323625 -2.37707 -0.305738 -3.09401 -0.754731 -2.90447 4.49575 -0.375624 3.7397 -14.9463 0.726621 -0.0 0.0 0.0 -0.0 0.0 0.0 4.44957e-14 -3.78181e-12 1.99049e-14 13.7148 6.21362 16.5842 -4.17197 -1.88447 6.53072 -0.000224388 -0.52951 -0.0744627 2.80583e-10 6.41507e-11 -1.50187e-10 4.84971e-10 1.10701e-10 -2.59094e-10 2.80589e-10 6.4153e-11 -1.50193e-10 7.73091 5.47488 0.417314 2.80583e-10 6.41511e-11 -1.50189e-10 2.90554 0.965183 0.102902 2.80593e-10 6.41518e-11 -1.50193e-10 10.2786 0.731801 0.0259123 2.80579e-10 6.41527e-11 -1.50191e-10 2.22167 -0.733487 -0.20892 4.43616e-14 -3.78182e-12 1.96482e-14 -11.1981 0.210828 -19.105 4.12504 -1.85414 -6.46692 -0.0316665 3.94959 -0.550326 -1.40182e-10 6.00504e-11 6.60168e-11 -2.41106e-10 1.03324e-10 1.17117e-10 -1.40187e-10 6.00524e-11 6.60189e-11 -7.73091 5.47488 -0.417314 -1.40183e-10 6.0051e-11 6.60154e-11 -2.90554 0.965183 -0.102902 -1.40192e-10 6.00518e-11 6.60181e-11 -10.2786 0.731801 -0.0259123 -1.40183e-10 6.00518e-11 6.60141e-11 -2.22167 -0.733487 0.20892 -2.03217e-16 0.0 -3.88251e-19 -0.305664 -21.3671 -1.1113 0.363193 19.2483 0.26289 -0.739901 -1.00636 -1.33688 2.03217e-16 0.0 3.88251e-19 0.152458 0.848469 2.76467 -0.0929616 9.41756 -0.608272 0.379774 9.07505 0.447088
71.2057 68.626 -2.80616 7.3167 -79.0514 11.7477 -0.921373 0.680218 -4.82061 -0.148895 -6.34701 -1.45653 -5.89999 9.24326 -0.786798 8.16131 -30.7258 1.66555 -0.0 0.0 0.0 -0.0 0.0 0.0 8.52414e-14 -7.85107e-12 3.89494e-14 24.668 11.2426 34.5189 -8.08441 -3.76973 13.4069 -0.00245085 -1.01713 -0.143099 5.78079e-10 1.39261e-10 -3.22358e-10 9.99217e-10 2.40306e-10 -5.55899e-10 5.78084e-10 1.39264e-10 -3.22364e-10 7.73091 5.47488 0.417314 5.78078e-10 1.39261e-10 -3.22359e-10 2.90554 0.965183 0.102902 5.78088e-10 1.39262e-10 -3.22362e-10 10.2786 0.731801 0.0259123 5.78073e-10 1.39263e-10 -3.22356e-10 2.22167 -0.733487 -0.20892 8.50668e-14 -7.85107e-12 3.86294e-14 -23.1009 0.707996 -39.2716 8.00034 -3.71087 -13.2755 0.0181543 8.13141 -1.14195 -3.72725e-10 1.45526e-10 1.67053e-10 -6.4128e-10 2.50509e-10 2.95183e-10 -3.72728e-10 1.4553e-10 1.67054e-10 -7.73091 5.47488 -0.417314 -3.72725e-10 1.45528e-10 1.67053e-10 -2.90554 0.965183 -0.102902 -3.72735e-10 1.45529e-10 1.67054e-10 -10.2786 0.731801 -0.0259123 -3.72727e-10 1.45528e-10 1.67047e-10 -2.22167 -0.733487 0.20892 -2.03217e-16 0.0 -3.88251e-19 -0.435718 -41.9406 -2.84657 0.407657 41.818 0.783252 -1.35928 -6.25582 -2.90861 2.03217e-16 0.0 3.88251e-19 1.68163 9.65636 5.54568 -0.158595 10.9149 -1.12738 0.0875126 19.2377 1.03993
69.9516 69.0055 -2.87298 6.1585 -79.3435 13.1687 -0.537715 0.971601 -7.02149 -0.0144296 -9.28021 -2.09464 -8.53231 13.4849 -1.15526 12.75 -44.804 2.96901 -0.0 0.0 0.0 -0.0 0.0 0.0 1.20169e-13 -1.13457e-11 5.95158e-14 31.6679 12.4974 51.1055 -11.2503 -5.3602 19.6711 -0.00480348 -1.58852 -0.223464 7.12462e-10 1.90209e-10 -4.51005e-10 1.23164e-09 3.28229e-10 -7.78028e-10 7.12466e-10 1.90213e-10 -4.51011e-10 7.73091 5.47488 0.417314 7.1246e-10 1.90211e-10 -4.51006e-10 2.90554 0.965183 0.102902 7.12471e-10 1.90211e-10 -4.51007e-10 10.2786 0.731801 0.0259123 7.12456e-10 1.90212e-10 -4.50999e-10 2.22167 -0.733487 -0.20892 1.19963e-13 -1.13457e-11 5.91435e-14 -33.25 0.361461 -57.3163 11.1417 -5.27954 -19.4765 0.136796 11.8443 -1.6829 -5.49858e-10 1.7792e-10 1.97631e-10 -9.46635e-10 3.06123e-10 3.50631e-10 -5.4986e-10 1.77925e-10 1.9763e-10 -7.73091 5.47488 -0.417314 -5.49857e-10 1.77922e-10 1.97633e-10 -2.90554 0.965183 -0.102902 -5.49869e-10 1.77924e-10 1.97631e-10 -10.2786 0.731801 -0.0259123 -5.49861e-10 1.77923e-10 1.97622e-10 -2.22167 -0.733487 0.20892 -2.03217e-16 0.0 -3.88251e-19 -2.89187 -60.1145 -6.24622 -0.294294 61.89 1.87712 -2.15732 -10.986 -4.34237 2.03217e-16 0.0 3.88251e-19 2.0957 17.3343 8.27712 -0.194149 12.2887 -1.59726 -0.340997 28.231 1.60036
68.7666 69.4059 -2.81008 8.3183 -79.8873 11.4536 -0.83912 1.10658 -8.61473 0.214869 -11.4188 -2.55143 -10.3906 16.4642 -1.38896 16.7067 -54.6551 4.57101 -0.0 0.0 0.0 -0.0 0.0 0.0 1.40554e-13 -1.34036e-11 8.38871e-14 35.3723 10.5578 62.9928 -13.3904 -6.47299 24.3356 -0.00688977 -2.3693 -0.333176 4.39066e-10 1.80754e-10 -4.70843e-10 7.59481e-10 3.11949e-10 -8.13466e-10 4.39069e-10 1.80758e-10 -4.70849e-10 7.73091 5.47488 0.417314 4.39063e-10 1.80757e-10 -4.70843e-10 2.90554 0.965183 0.102902 4.39075e-10 1.80758e-10 -4.70843e-10 10.2786 0.731801 0.0259123 4.3906e-10 1.80758e-10 -4.70833e-10 2.22167 -0.733487 -0.20892 1.40338e-13 -1.34036e-11 8.34896e-14 -40.0618 -0.653423 -70.0798 13.2676 -6.37836 -24.0918 0.260872 14.3893 -2.06635 -5.88469e-10 7.76087e-11 5.20625e-11 -1.01494e-09 1.3281e-10 9.95307e-11 -5.8847e-10 7.76131e-11 5.20625e-11 -7.73091 5.47488 -0.417314 -5.88468e-10 7.76109e-11 5.20657e-11 -2.90554 0.965183 -0.102902 -5.88479e-10 7.76123e-11 5.20633e-11 -10.2786 0.731801 -0.0259123 -5.88472e-10 7.76111e-11 5.2053e-11 -2.22167 -0.733487 0.20892 -2.03217e-16 0.0 -3.88251e-19 -9.43922 -72.3337 -12.8493 -2.64416 75.7183 4.45331 -2.8533 -14.4492 -5.34547 2.03217e-16 0.0 3.88251e-19 1.38312 22.3548 10.447 -0.20573 13.3562 -1.93356 -0.645811 34.3119 1.88562
67.7465 69.809 -2.67071 15.273 -80.5321 5.1043 -2.29572 1.02465 -9.37682 0.718747 -12.4672 -2.7368 -11.2562 17.7003 -1.40577 18.8077 -58.6587 5.785 -0.0 0.0 0.0 -0.0 0.0 0.0 1.36979e-13 -1.33757e-11 1.24292e-13 35.8269 8.08957 68.7901 -14.4539 -7.09915 26.7361 -0.0115443 -3.60997 -0.507631 -5.27752e-10 7.54729e-11 -3.28939e-10 -9.10803e-10 1.3039e-10 -5.7192e-10 -5.2775e-10 7.54793e-11 -3.28947e-10 7.73091 5.47488 0.417314 -5.27754e-10 7.54789e-11 -3.28939e-10 2.90554 0.965183 0.102902 -5.27743e-10 7.54796e-11 -3.28939e-10 10.2786 0.731801 0.0259123 -5.27757e-10 7.54794e-11 -3.2893e-10 2.22167 -0.733487 -0.20892 1.36787e-13 -1.33757e-11 1.23912e-13 -42.2899 -1.9705 -75.6773 14.3262 -6.99809 -26.4693 0.312913 15.2393 -2.1977 -4.22791e-10 -2.16774e-10 -4.38217e-10 -7.34678e-10 -3.75189e-10 -7.50477e-10 -4.22792e-10 -2.16771e-10 -4.38215e-10 -7.73091 5.47488 -0.417314 -4.2279e-10 -2.16772e-10 -4.38213e-10 -2.90554 0.965183 -0.102902 -4.228e-10 -2.16772e-10 -4.38216e-10 -10.2786 0.731801 -0.0259123 -4.22792e-10 -2.16772e-10 -4.38226e-10 -2.22167 -0.733487 0.20892 -2.03217e-16 0.0 -3.88251e-19 -16.5664 -76.5057 -18.9808 -5.65763 80.9519 7.56847 -3.15804 -16.2131 -5.68309 2.03217e-16 0.0 3.88251e-19 -0.171202 23.7631 11.4349 -0.207048 14.0109 -2.07787 -0.354873 36.2678 1.36898
